<?xml version="1.0" encoding="UTF-8" standalone="no"?>
<svg
   version="1.1"
   viewBox="-1200 -1200 2400 2400"
   id="svg31"
   sodipodi:docname="scp_mtf.svg"
   inkscape:export-filename="C:\Users\achyt\dev\Downfall-Of-Site-13\icons\scp_mtf.png"
   inkscape:export-xdpi="59.978642"
   inkscape:export-ydpi="59.978642"
   inkscape:version="1.1.1 (3bf5ae0d25, 2021-09-20)"
   xmlns:inkscape="http://www.inkscape.org/namespaces/inkscape"
   xmlns:sodipodi="http://sodipodi.sourceforge.net/DTD/sodipodi-0.dtd"
   xmlns:xlink="http://www.w3.org/1999/xlink"
   xmlns="http://www.w3.org/2000/svg"
   xmlns:svg="http://www.w3.org/2000/svg">
  <sodipodi:namedview
     id="namedview33"
     pagecolor="#ffffff"
     bordercolor="#666666"
     borderopacity="1.0"
     inkscape:pageshadow="2"
     inkscape:pageopacity="0.0"
     inkscape:pagecheckerboard="0"
     showgrid="false"
     inkscape:zoom="0.38065916"
     inkscape:cx="1216.3112"
     inkscape:cy="1154.5762"
     inkscape:window-width="1920"
     inkscape:window-height="1009"
     inkscape:window-x="-8"
     inkscape:window-y="-8"
     inkscape:window-maximized="1"
     inkscape:current-layer="layer4"
     inkscape:snap-global="false" />
  <defs
     id="defs13">
    <mask
       id="c">
      <path
         d="m-1200-1200h2400v2400h-2400z"
         fill="#fff"
         id="path2" />
      <circle
         r="925"
         id="circle4" />
      <path
         d="m-306-861 36-185h540l36 185"
         id="path6" />
      <path
         transform="rotate(120)"
         d="m-306-861 36-185h540l36 185"
         id="path8" />
      <path
         transform="rotate(240)"
         d="m-306-861 36-185h540l36 185"
         id="path10" />
    </mask>
    <filter
       inkscape:label="Rough and Glossy"
       inkscape:menu="Textures"
       inkscape:menu-tooltip="Crumpled glossy paper effect which can be used for pictures as for objects"
       style="color-interpolation-filters:sRGB;"
       id="filter2097"
       x="-0.00028116037"
       y="-0.0002501137"
       width="1.0005766"
       height="1.0004978">
      <feTurbulence
         type="fractalNoise"
         numOctaves="7"
         baseFrequency="0.007462686567164179"
         seed="55"
         result="result0"
         id="feTurbulence2079" />
      <feDiffuseLighting
         surfaceScale="4"
         diffuseConstant="1"
         kernelUnitLength="1"
         result="result1"
         in="result0"
         id="feDiffuseLighting2083">
        <feDistantLight
           azimuth="235"
           elevation="60"
           id="feDistantLight2081" />
      </feDiffuseLighting>
      <feSpecularLighting
         in="result0"
         surfaceScale="3"
         specularConstant="1"
         specularExponent="25"
         kernelUnitLength="1"
         result="result3"
         id="feSpecularLighting2087">
        <feDistantLight
           azimuth="235"
           elevation="55"
           id="feDistantLight2085" />
      </feSpecularLighting>
      <feComposite
         in="result1"
         in2="SourceGraphic"
         operator="arithmetic"
         k1="1"
         result="result2"
         id="feComposite2089" />
      <feComposite
         in="result2"
         in2="result3"
         operator="arithmetic"
         k2="1"
         k3="1"
         result="result4"
         id="feComposite2091" />
      <feComposite
         in2="SourceAlpha"
         operator="in"
         in="result4"
         result="fbSourceGraphic"
         id="feComposite2093" />
      <feDisplacementMap
         scale="14.61038961038961"
         yChannelSelector="G"
         xChannelSelector="R"
         in2="result0"
         id="feDisplacementMap2095" />
    </filter>
  </defs>
  <g
     inkscape:groupmode="layer"
     id="layer1"
     inkscape:label="Layer 1"
     style="display:inline;opacity:1">
    <path
       style="fill:#000000;fill-opacity:1;stroke:#000000;stroke-width:1px;stroke-linecap:butt;stroke-linejoin:miter;stroke-opacity:1;filter:url(#filter2097)"
       d="m -293.67739,-1063.3949 -34.15128,160.24839 -212.78879,118.216 -139.23217,105.08088 -154.9943,194.39963 -86.69173,212.78879 -26.27022,194.39961 -7.88107,173.3835 10.50809,73.5566 -89.31874,65.6755 -42.0324,49.9135 291.59949,514.8963 168.12941,-63.0485 139.23217,89.3187 176.01048,84.0647 225.92385,44.6594 267.9563,-13.1351 223.2969,-68.3026 147.1132,-99.8268 65.6756,-36.7783 152.3672,57.7944 L 1080.2552,273.7594 946.277,155.5434 962.0392,-23.0941 943.65,-183.3425 888.4825,-359.35294 801.7908,-532.7364 l -115.589,-136.60514 -128.724,-112.96195 -157.6214,-94.5728 -70.9296,-31.52426 -36.7783,-165.50235 z"
       id="path1309" />
  </g>
  <g
     inkscape:groupmode="layer"
     id="layer2"
     inkscape:label="Layer 2"
     style="display:inline;opacity:1">
    <g
       mask="url(#c)"
       id="g22"
       style="fill:#ffffff;fill-opacity:1;filter:url(#filter2097)">
      <circle
         r="984"
         id="circle15"
         style="fill:#ffffff;fill-opacity:1"
         cx="0"
         cy="0" />
      <path
         id="a"
         d="m -359,-913 36,-185 h 646 l 36,185"
         style="fill:#ffffff;fill-opacity:1" />
      <use
         transform="rotate(120)"
         xlink:href="#a"
         id="use18"
         style="fill:#ffffff;fill-opacity:1"
         x="0"
         y="0"
         width="100%"
         height="100%" />
      <use
         transform="rotate(-120)"
         xlink:href="#a"
         id="use20"
         style="fill:#ffffff;fill-opacity:1"
         x="0"
         y="0"
         width="100%"
         height="100%" />
    </g>
  </g>
  <g
     inkscape:groupmode="layer"
     id="layer4"
     inkscape:label="Layer 4">
    <path
       style="fill:#ffffff;fill-opacity:1;stroke-width:2.06952;filter:url(#filter2097)"
       d="M -55.108127,622.06087 C -202.47667,611.15661 -347.00398,542.04478 -451.65402,432.43571 c -65.2386,-68.33007 -108.95883,-141.50413 -140.97772,-235.95285 -29.60328,-87.3232 -38.43697,-197.4130823 -23.47183,-292.517635 3.90384,-24.809185 17.37349,-77.186705 27.14227,-105.544375 25.70464,-74.61753 72.86671,-153.7922 126.10223,-211.69737 63.32912,-68.88439 139.11055,-122.49572 220.241,-155.80899 72.2092,-29.65022 128.34121,-42.48435 204.548343,-46.76867 68.507696,-3.85138 121.553716,1.03724 185.106617,17.05926 113.09884,28.5126 208.37934,82.74976 292.30273,166.38962 56.73154,56.53991 96.5102,115.16134 127.84211,188.39979 33.93641,79.32626 48.31336,144.936255 50.33694,229.716785 1.75661,73.589898 -4.84019,128.182785 -23.06873,190.908435 -45.41603,156.2804 -147.87528,285.03951 -293.39296,368.70236 -64.67292,37.18253 -143.9196,63.65668 -220.660508,73.71653 -29.279694,3.83824 -102.427853,5.4697 -135.504599,3.02227 z M 85.392915,529.30301 c 30.451745,-5.3042 66.060115,-14.38654 90.902845,-23.18585 21.08448,-7.46815 58.86811,-23.7068 64.1547,-27.5725 3.15105,-2.30418 -1.23737,-9.07522 -41.83741,-64.55127 C 112.54212,296.3858 92.13479,269.23037 88.713253,267.7532 85.698376,266.45166 60.857264,261.76107 -18.539086,247.50154 l -21.0381,-3.77844 -36.307743,-36.91227 -36.307741,-36.9123 25.268301,-24.7839 c 13.897551,-13.63116 44.410244,-43.66505 67.805983,-66.742002 23.3957379,-23.07697 43.593446,-41.958112 44.883813,-41.958112 1.290366,0 18.848112,23.514922 39.0172,52.255382 52.607553,74.964422 52.641293,73.802412 0.266388,-9.161559 L 32.80908,28.438979 79.222227,-18.557773 c 25.527323,-25.848222 46.413333,-47.191042 46.413333,-47.428452 0,-0.23744 -13.03797,-27.09804 -28.973281,-59.690185 -15.935304,-32.59215 -28.964423,-59.97701 -28.953475,-60.85523 0.01863,-1.51481 40.331696,-30.38579 59.185646,-42.38719 l 8.81098,-5.60848 11.27351,21.12988 c 6.20028,11.62149 30.10593,57.91568 53.12354,102.87601 23.01762,44.960335 46.49011,90.388784 52.16101,100.9521317 l 10.31097,19.206077 -2.25785,38.7404843 c -1.24192,21.307261 -2.7537,46.267888 -3.35945,55.468047 l -1.10161,16.72755 18.16315,17.41951 c 9.98978,9.58074 29.33565,28.12928 42.99076,41.21899 13.6549,13.08972 35.55145,34.12093 48.65855,46.73602 13.10731,12.61509 35.8592,34.34805 50.55983,48.29546 l 26.72847,25.35894 9.08809,-14.1484 c 26.43543,-41.1546 57.90807,-118.40732 68.60997,-168.40936 21.22872,-99.187501 14.28176,-202.645935 -19.93569,-296.89437 -11.05206,-30.44144 -37.58165,-82.11984 -57.36585,-111.74523 -28.89961,-43.27532 -62.89789,-83.16056 -66.96098,-78.55567 -0.95839,1.08608 -11.81178,23.8597 -24.11901,50.60825 -24.30714,52.82947 -55.11608,118.44832 -56.29985,119.91095 -0.40666,0.50242 -5.80831,-4.09262 -12.00383,-10.2112 l -11.26461,-11.12468 -4.72306,3.93366 c -2.59766,2.1635 -20.15112,19.09805 -39.00775,37.63232 -18.85685,18.53427 -34.9157,33.69868 -35.68639,33.69868 -0.77069,0 -8.33127,-13.83675 -16.80119,-30.74835 l -15.39972,-30.74833 30.95713,-30.71042 30.95733,-30.71023 -11.50385,-11.62511 -11.50363,-11.62512 85.03409,-41.11763 c 46.76867,-22.61468 85.55437,-41.95952 86.19013,-42.98828 2.89215,-4.67939 -41.45456,-42.22897 -79.59436,-67.39475 -59.60177,-39.32709 -128.31065,-65.98561 -207.378121,-80.46129 -27.462179,-5.02769 -34.485448,-5.49043 -82.7808853,-5.45422 -43.9571237,0.0331 -57.7855737,0.80629 -82.7808027,4.62911 -149.849421,22.91828 -280.799111,105.54283 -364.021321,229.68403 -45.73999,68.22975 -72.62447,138.0857 -86.51864,224.808085 -5.73046,35.76741 -5.12896,117.281542 1.13008,153.144482 16.90947,96.887553 50.96226,175.833373 106.50547,246.915503 l 16.67327,21.33783 49.80934,-49.36906 c 27.39514,-27.15299 69.36427,-68.41868 93.2647,-91.70153 86.4827,-84.24794 130.19142,-127.186757 236.485218,-232.319598 C 31.505324,-81.002065 81.090383,-129.1471 82.20068,-129.1471 c 1.110091,0 8.9693,13.87861 17.464887,30.841355 L 115.11205,-67.464385 4.9980002,40.784453 C -55.564704,100.32132 -138.17659,181.73166 -178.58397,221.69635 c -40.40739,39.96468 -97.43558,96.26581 -126.72934,125.11359 -44.89454,44.21107 -52.85952,52.93638 -50.70325,55.54325 5.2611,6.3605 36.38989,30.31126 58.40815,44.93977 66.60633,44.25195 142.80644,72.77449 226.639481,84.83366 31.064842,4.46861 124.146887,2.78771 156.361844,-2.82361 z M -263.56004,20.596098 c -60.57328,-60.234168 -86.19444,-87.027103 -85.09674,-88.988593 3.63519,-6.49573 48.56989,-56.615315 50.75599,-56.612585 1.31392,0.002 29.86181,24.76524 63.43977,55.030265 64.81494,58.419967 83.66725,74.7462237 78.64177,68.1043897 -3.98879,-5.27173 -40.82319,-49.9485897 -97.25671,-117.9638347 -58.70487,-70.75271 -64.16586,-77.58025 -64.16586,-80.22248 0,-1.22984 5.28431,-6.96499 11.74291,-12.74479 6.4586,-5.7798 20.19504,-18.27424 30.52542,-27.76526 l 18.78251,-17.25628 12.17174,13.11724 c 13.44811,14.49305 77.75639,86.54068 127.52087,142.86793 17.64266,19.969305 32.3657,36.063155 32.717891,35.764095 0.720007,-0.6114 -34.526671,-52.099335 -109.346241,-159.731705 -59.90096,-86.17111 -57.90232,-82.99564 -53.75142,-85.40125 1.70736,-0.98943 17.96164,-13.04832 36.12062,-26.79759 18.15898,-13.74927 33.52518,-24.97104 34.14709,-24.93751 1.36125,0.0724 -1.11117,-3.29799 90.628272,123.57456 40.527473,56.04796 74.011273,101.58049 74.408435,101.18331 0.397161,-0.39716 -14.772317,-32.28538 -33.709957,-70.86273 -18.937661,-38.57734 -39.194662,-79.91911 -45.015584,-91.87059 -5.820886,-11.95148 -10.847486,-22.22561 -11.170166,-22.83136 -0.915,-1.7177 65.412456,-39.25424 69.36257,-39.25424 1.029917,0 6.607026,10.0113 12.39359,22.24734 5.786544,12.23604 30.317434,62.26731 54.513083,111.18056 l 43.992161,88.93317 -72.2935925,71.092525 C -105.98893,41.06926 -173.77529,106.7782 -175.4038,106.7782 c -0.81891,0 -40.48924,-38.781959 -88.15624,-86.182102 z"
       id="path1138" />
  </g>
  <g
     inkscape:groupmode="layer"
     id="layer3"
     inkscape:label="Layer 3"
     style="display:inline">
    <circle
       r="590.5"
       fill="none"
       stroke="#000"
       stroke-width="119"
       id="circle24"
       style="display:inline;fill:none;fill-opacity:1;stroke:#fbfbfb;stroke-opacity:1;filter:url(#filter2097)"
       cx="0"
       cy="0" />
  </g>
</svg>
