<?xml version="1.0" encoding="UTF-8" standalone="no"?>
<!-- Generator: Adobe Illustrator 23.0.3, SVG Export Plug-In . SVG Version: 6.00 Build 0)  -->

<svg
   version="1.2"
   id="Layer_1"
   x="0px"
   y="0px"
   viewBox="0 0 200 200"
   xml:space="preserve"
   sodipodi:docname="wiki_safe_icon.svg"
   inkscape:export-filename="C:\Users\achyt\dev\Downfall-Of-Site-13\icons\wiki_safe_icon.png"
   inkscape:export-xdpi="600"
   inkscape:export-ydpi="600"
   inkscape:version="1.1.1 (3bf5ae0d25, 2021-09-20)"
   xmlns:inkscape="http://www.inkscape.org/namespaces/inkscape"
   xmlns:sodipodi="http://sodipodi.sourceforge.net/DTD/sodipodi-0.dtd"
   xmlns="http://www.w3.org/2000/svg"
   xmlns:svg="http://www.w3.org/2000/svg"><defs
   id="defs15"><filter
     inkscape:label="Rough and Glossy"
     inkscape:menu="Textures"
     inkscape:menu-tooltip="Crumpled glossy paper effect which can be used for pictures as for objects"
     style="color-interpolation-filters:sRGB;"
     id="filter846"
     x="-0.012982315"
     y="-0.012982315"
     width="1.0259646"
     height="1.0259646"><feTurbulence
       type="fractalNoise"
       numOctaves="5"
       baseFrequency="0.02"
       seed="136"
       result="result0"
       id="feTurbulence828" /><feDiffuseLighting
       surfaceScale="4"
       diffuseConstant="1"
       kernelUnitLength="1"
       result="result1"
       in="result0"
       id="feDiffuseLighting832"><feDistantLight
         azimuth="235"
         elevation="60"
         id="feDistantLight830" /></feDiffuseLighting><feSpecularLighting
       in="result0"
       surfaceScale="3"
       specularConstant="1"
       specularExponent="25"
       kernelUnitLength="1"
       result="result3"
       id="feSpecularLighting836"><feDistantLight
         azimuth="235"
         elevation="55"
         id="feDistantLight834" /></feSpecularLighting><feComposite
       in="result1"
       in2="SourceGraphic"
       operator="arithmetic"
       k1="1"
       result="result2"
       id="feComposite838" /><feComposite
       in="result2"
       in2="result3"
       operator="arithmetic"
       k2="1"
       k3="1"
       result="result4"
       id="feComposite840" /><feComposite
       in2="SourceAlpha"
       operator="in"
       in="result4"
       result="fbSourceGraphic"
       id="feComposite842" /><feDisplacementMap
       scale="7"
       yChannelSelector="G"
       xChannelSelector="R"
       in2="result0"
       id="feDisplacementMap844" /></filter><filter
     inkscape:label="Rough and Glossy"
     inkscape:menu="Textures"
     inkscape:menu-tooltip="Crumpled glossy paper effect which can be used for pictures as for objects"
     style="color-interpolation-filters:sRGB;"
     id="filter866"
     x="0"
     y="0"
     width="1"
     height="1"><feTurbulence
       type="fractalNoise"
       numOctaves="6"
       baseFrequency="0.02"
       seed="136"
       result="result0"
       id="feTurbulence848" /><feDiffuseLighting
       surfaceScale="4"
       diffuseConstant="1"
       kernelUnitLength="1"
       result="result1"
       in="result0"
       id="feDiffuseLighting852"><feDistantLight
         azimuth="235"
         elevation="60"
         id="feDistantLight850" /></feDiffuseLighting><feSpecularLighting
       in="result0"
       surfaceScale="3"
       specularConstant="1"
       specularExponent="25"
       kernelUnitLength="1"
       result="result3"
       id="feSpecularLighting856"><feDistantLight
         azimuth="235"
         elevation="55"
         id="feDistantLight854" /></feSpecularLighting><feComposite
       in="result1"
       in2="SourceGraphic"
       operator="arithmetic"
       k1="1"
       result="result2"
       id="feComposite858" /><feComposite
       in="result2"
       in2="result3"
       operator="arithmetic"
       k2="1"
       k3="1"
       result="result4"
       id="feComposite860" /><feComposite
       in2="SourceAlpha"
       operator="in"
       in="result4"
       result="fbSourceGraphic"
       id="feComposite862" /><feDisplacementMap
       scale="7"
       yChannelSelector="G"
       xChannelSelector="R"
       in2="result0"
       id="feDisplacementMap864" /></filter></defs><sodipodi:namedview
   id="namedview13"
   pagecolor="#ffffff"
   bordercolor="#666666"
   borderopacity="1.0"
   inkscape:pageshadow="2"
   inkscape:pageopacity="0.0"
   inkscape:pagecheckerboard="0"
   showgrid="false"
   inkscape:zoom="3.23"
   inkscape:cx="100.3096"
   inkscape:cy="100.1548"
   inkscape:window-width="1920"
   inkscape:window-height="1009"
   inkscape:window-x="-8"
   inkscape:window-y="-8"
   inkscape:window-maximized="1"
   inkscape:current-layer="layer1" />

<g
   inkscape:groupmode="layer"
   id="layer1"
   inkscape:label="Layer 1"><circle
     style="fill:#01ff13;fill-opacity:1;stroke:#000000;stroke-width:5;stroke-linejoin:round;filter:url(#filter846)"
     id="path958"
     cx="100"
     cy="100.30959"
     r="96.284828" /></g><g
   inkscape:groupmode="layer"
   id="layer2"
   inkscape:label="Layer 2"><g
     id="g10"
     style="filter:url(#filter866)">
	<path
   fill="none"
   d="M117.7,54.5c0-3.8-3-7-7-7H89.3c-3.8,0-7,3-7,7V82h35.4V54.5z"
   id="path2" />
	<path
   fill="#010101"
   d="M137.6,82.5v-0.3v-3V47.5c0-10.9-8.8-19.9-19.9-19.9H82.3c-11,0-19.9,8.8-19.9,19.9v31v3.8v0.3   C52,84.4,44,93.5,44,104.5V142c0,12.3,10,22.2,22.2,22.2h67.9c12.3,0,22.2-10,22.2-22.2v-37.6C156.3,93.2,148.2,84.1,137.6,82.5z    M82.3,54.5c0-3.9,3.2-7,7-7h21.5c3.9,0,7,3.2,7,7V82H82.3V54.5z M99.9,148.8c-14.2,0-25.8-11.6-25.8-25.8s11.6-25.8,25.8-25.8   c14.2,0,25.8,11.6,25.8,25.8S114.1,148.8,99.9,148.8z"
   id="path4" />
	<ellipse
   transform="matrix(0.3827 -0.9239 0.9239 0.3827 -51.9271 168.1886)"
   fill="#010101"
   cx="99.9"
   cy="123"
   rx="18"
   ry="18"
   id="ellipse6" />
	<path
   fill="#FFFFFF"
   d="M99.9,97.1c-14.2,0-25.8,11.6-25.8,25.8s11.6,25.8,25.8,25.8c14.2,0,25.8-11.6,25.8-25.8   S114.1,97.1,99.9,97.1z M99.9,140.9c-9.9,0-18-8-18-18s8-18,18-18c10,0,18,8,18,18S109.8,140.9,99.9,140.9z"
   id="path8" />
</g></g></svg>
