<?xml version="1.0" encoding="UTF-8" standalone="no"?>
<!-- Generator: Adobe Illustrator 23.0.3, SVG Export Plug-In . SVG Version: 6.00 Build 0)  -->

<svg
   version="1.2"
   id="Layer_1"
   x="0px"
   y="0px"
   viewBox="0 0 200 200"
   xml:space="preserve"
   sodipodi:docname="wiki_keter_icon.svg"
   inkscape:export-filename="C:\Users\achyt\dev\Downfall-Of-Site-13\icons\wiki_keter_icon.png"
   inkscape:export-xdpi="600"
   inkscape:export-ydpi="600"
   inkscape:version="1.1.1 (3bf5ae0d25, 2021-09-20)"
   xmlns:inkscape="http://www.inkscape.org/namespaces/inkscape"
   xmlns:sodipodi="http://sodipodi.sourceforge.net/DTD/sodipodi-0.dtd"
   xmlns="http://www.w3.org/2000/svg"
   xmlns:svg="http://www.w3.org/2000/svg"><defs
   id="defs13"><filter
     inkscape:label="Rough and Glossy"
     inkscape:menu="Textures"
     inkscape:menu-tooltip="Crumpled glossy paper effect which can be used for pictures as for objects"
     style="color-interpolation-filters:sRGB;"
     id="filter846"
     x="-0.012982315"
     y="-0.012982315"
     width="1.0259646"
     height="1.0259646"><feTurbulence
       type="fractalNoise"
       numOctaves="7"
       baseFrequency="0.029999999999999999"
       seed="55"
       result="result0"
       id="feTurbulence828" /><feDiffuseLighting
       surfaceScale="4"
       diffuseConstant="1"
       kernelUnitLength="1"
       result="result1"
       in="result0"
       id="feDiffuseLighting832"><feDistantLight
         azimuth="235"
         elevation="60"
         id="feDistantLight830" /></feDiffuseLighting><feSpecularLighting
       in="result0"
       surfaceScale="3"
       specularConstant="1"
       specularExponent="25"
       kernelUnitLength="1"
       result="result3"
       id="feSpecularLighting836"><feDistantLight
         azimuth="235"
         elevation="55"
         id="feDistantLight834" /></feSpecularLighting><feComposite
       in="result1"
       in2="SourceGraphic"
       operator="arithmetic"
       k1="1"
       result="result2"
       id="feComposite838" /><feComposite
       in="result2"
       in2="result3"
       operator="arithmetic"
       k2="1"
       k3="1"
       result="result4"
       id="feComposite840" /><feComposite
       in2="SourceAlpha"
       operator="in"
       in="result4"
       result="fbSourceGraphic"
       id="feComposite842" /><feDisplacementMap
       scale="7.2999999999999998"
       yChannelSelector="G"
       xChannelSelector="R"
       in2="result0"
       id="feDisplacementMap844" /></filter><filter
     inkscape:label="Rough and Glossy"
     inkscape:menu="Textures"
     inkscape:menu-tooltip="Crumpled glossy paper effect which can be used for pictures as for objects"
     style="color-interpolation-filters:sRGB;"
     id="filter866"
     x="0"
     y="0"
     width="1"
     height="1"><feTurbulence
       type="fractalNoise"
       numOctaves="7"
       baseFrequency="0.029999999999999999"
       seed="55"
       result="result0"
       id="feTurbulence848" /><feDiffuseLighting
       surfaceScale="4"
       diffuseConstant="1"
       kernelUnitLength="1"
       result="result1"
       in="result0"
       id="feDiffuseLighting852"><feDistantLight
         azimuth="235"
         elevation="60"
         id="feDistantLight850" /></feDiffuseLighting><feSpecularLighting
       in="result0"
       surfaceScale="3"
       specularConstant="1"
       specularExponent="25"
       kernelUnitLength="1"
       result="result3"
       id="feSpecularLighting856"><feDistantLight
         azimuth="235"
         elevation="55"
         id="feDistantLight854" /></feSpecularLighting><feComposite
       in="result1"
       in2="SourceGraphic"
       operator="arithmetic"
       k1="1"
       result="result2"
       id="feComposite858" /><feComposite
       in="result2"
       in2="result3"
       operator="arithmetic"
       k2="1"
       k3="1"
       result="result4"
       id="feComposite860" /><feComposite
       in2="SourceAlpha"
       operator="in"
       in="result4"
       result="fbSourceGraphic"
       id="feComposite862" /><feDisplacementMap
       scale="7.2999999999999998"
       yChannelSelector="G"
       xChannelSelector="R"
       in2="result0"
       id="feDisplacementMap864" /></filter></defs><sodipodi:namedview
   id="namedview11"
   pagecolor="#ffffff"
   bordercolor="#666666"
   borderopacity="1.0"
   inkscape:pageshadow="2"
   inkscape:pageopacity="0.0"
   inkscape:pagecheckerboard="0"
   showgrid="false"
   showguides="true"
   inkscape:guide-bbox="true"
   inkscape:zoom="0.8075"
   inkscape:cx="42.105263"
   inkscape:cy="11.764706"
   inkscape:window-width="1920"
   inkscape:window-height="1009"
   inkscape:window-x="-8"
   inkscape:window-y="-8"
   inkscape:window-maximized="1"
   inkscape:current-layer="layer2"><sodipodi:guide
     position="100,100"
     orientation="-1,0"
     id="guide854"
     inkscape:label=""
     inkscape:locked="false"
     inkscape:color="rgb(0,0,255)" /></sodipodi:namedview>

<g
   inkscape:groupmode="layer"
   id="layer1"
   inkscape:label="Layer 1"><circle
     style="fill:#ff0101;stroke:#000000;stroke-width:5;stroke-linejoin:round;fill-opacity:1;filter:url(#filter846)"
     id="path958"
     cx="100"
     cy="100"
     r="96.284828" /></g><g
   inkscape:groupmode="layer"
   id="layer2"
   inkscape:label="Layer 2"><g
     id="g8"
     style="filter:url(#filter866)">
	<path
   fill="#FFFFFF"
   d="M60.1,96c0.5-0.1,0.9-0.1,1.4,0l0.5,0c2.4-0.2,4.6,1.2,5.5,3.4l6.5,15.4l5.7,10.9l35.1-19.2   c0.8-0.5,1.7-0.7,2.6-0.7c0.5,0,1.1,0.1,1.6,0.2c1.4,0.4,2.6,1.4,3.3,2.7l11.4,21.3l19.3-9.9l-3.5-26.4   c-1.2-9.1-8.6-15.8-17.6-16.1l-3.6,0.5L123,38.7c-1.2-8.8-9.2-15-18-13.9L72.1,33c-3.9,1-6.4,4.7-5.9,8.7l2.5,18.7   c0.1,1,1.1,1.7,2.1,1.6l6-0.8c1-0.1,1.7-1.1,1.6-2.1l-0.9-7c-0.6-4.9,2.5-9.5,7.3-10.6l14.7-3.4c5.8-0.8,11.2,3.3,12,9.2l4.3,32.5   l-58.2,7.8c-7.7,1.1-10.9,3.4-11.7,9.5l12.6-0.9L60.1,96z"
   id="path2" />
	<path
   fill="#FFFFFF"
   d="M119.8,147.1l-6-23.1l-34.1,10.7c-2.7,0.9-5.6-0.5-6.7-3.1l-11.8-28.1l-15.5,1.1l-3.5,33.8   c-0.5,4.9,0.9,9.8,4.1,13.6c3.1,3.8,7.5,6.2,12.4,6.7l67.5,7c4.9,0.5,9.8-0.9,13.6-4.1c3.8-3.1,6.2-7.5,6.7-12.4l0.3-3.1l-20.3,4.9   C123.6,151.8,120.6,150,119.8,147.1z"
   id="path4" />
	<path
   fill="#010101"
   d="M160.4,120.4l-3.7-27.7c-1.6-11.8-10.6-20.7-22.1-22.2l-4.3-32.7c-1.7-12.9-13.6-22-26.4-20.3l-33.5,8.4   c-7.5,1.9-12.4,9.1-11.4,16.8l2.5,18.7c0.7,5.1,5.3,8.6,10.4,7.9l6-0.8c5-0.7,8.6-5.3,8-10.3l-0.9-7c-0.1-1.1,0.6-2.2,1.7-2.4   l14.2-3.3c1.7-0.2,3.3,1.1,3.5,2.8l3.3,25.2l-50.9,6.8c-13.1,1.9-18.6,8.3-18.3,21.5l0.1,0.7l-3.7,35c-0.7,6.9,1.3,13.7,5.7,19   c4.4,5.3,10.5,8.7,17.4,9.4l67.5,7c0.9,0.1,1.8,0.1,2.7,0.1c5.9,0,11.6-2,16.3-5.8c5.3-4.4,8.7-10.5,9.4-17.4l0.6-5.7   c0.2-1.8-0.5-3.6-1.9-4.7c-1.4-1.2-3.2-1.6-4.9-1.2l-21.1,5.1l-5.7-21.7l7.1,13.3c1,1.9,2.9,2.9,4.9,2.9c0.8,0,1.7-0.2,2.5-0.6   l22.1-11.3C159.5,125,160.7,122.7,160.4,120.4z M126.5,151l20.3-4.9l-0.3,3.1c-0.5,4.9-2.9,9.3-6.7,12.4c-3.8,3.1-8.7,4.6-13.6,4.1   l-67.5-7c-4.9-0.5-9.3-2.9-12.4-6.7c-3.1-3.8-4.6-8.7-4.1-13.6l3.5-33.8l15.5-1.1l11.8,28.1c1.1,2.6,4,4,6.7,3.1l34.1-10.7l6,23.1   C120.6,150,123.6,151.8,126.5,151z M133.6,130l-11.4-21.3c-0.7-1.3-1.9-2.3-3.3-2.7c-0.5-0.2-1.1-0.2-1.6-0.2   c-0.9,0-1.8,0.2-2.6,0.7l-35.1,19.2l-5.7-10.9l-6.5-15.4c-0.9-2.2-3.1-3.5-5.5-3.4l-0.5,0c-0.4-0.1-0.9-0.1-1.4,0l-1.6,0.2   l-12.6,0.9c0.8-6.1,4-8.4,11.7-9.5l58.2-7.8l-4.3-32.5c-0.8-5.8-6.1-9.9-12-9.2l-14.7,3.4c-4.8,1.1-8,5.7-7.3,10.6l0.9,7   c0.1,1-0.6,2-1.6,2.1l-6,0.8c-1,0.1-2-0.6-2.1-1.6l-2.5-18.7c-0.5-4,2-7.7,5.9-8.7l32.9-8.3c8.8-1.1,16.8,5.2,18,13.9l5.2,39.4   l3.6-0.5c9,0.3,16.4,7,17.6,16.1l3.5,26.4L133.6,130z"
   id="path6" />
</g></g></svg>
